<svg xmlns="http://www.w3.org/2000/svg" version="1.1" xmlns:xlink="http://www.w3.org/1999/xlink" width="1000" height="1000"><metadata><rdf:RDF xmlns:rdf="http://www.w3.org/1999/02/22-rdf-syntax-ns#" xmlns:dc="http://purl.org/dc/elements/1.1/"><rdf:Description><dc:creator>RealFaviconGenerator</dc:creator><dc:source>https://realfavicongenerator.net</dc:source></rdf:Description></rdf:RDF></metadata><g clip-path="url(#SvgjsClipPath1087)"><rect width="1000" height="1000" fill="#f20ff0"></rect><g transform="matrix(1.7578125,0,0,1.7578125,50,69.44140625)"><svg xmlns="http://www.w3.org/2000/svg" shape-rendering="geometricPrecision" text-rendering="geometricPrecision" image-rendering="optimizeQuality" fill-rule="evenodd" clip-rule="evenodd" viewBox="0 0 512 489.88" width="512" height="489.88"><path fill="#9F8EBB" d="M396.7 229.93l1.78 2.28c2.29-.32 4.46-.5 6.54-.54 3.39-.07 6.49.21 9.33.79l.26.04c5.92 1.26 10.77 3.83 14.65 7.31 4.24 3.8 7.24 8.62 9.18 13.96 5.91 16.22 1.98 30.15-2.06 44.52-4.55 16.16-9.28 32.98 3.24 53.42 6.8 11.11 16.69 18.48 27.78 21.8 7.74 2.33 16.08 2.69 24.4 1.01-29.59-21.86-21.19-46.12-11.1-75.22 1.61-4.64 3.26-9.42 4.88-14.66 5.18-16.8 5.16-34.03-.79-48.46-5.32-12.9-15.48-23.65-31-29.86-12.35-4.95-24.43-5.44-35.67-2.48-10.65 2.81-20.63 8.71-29.46 16.86 1.27 1.33 2.56 2.75 3.88 4.26 1.49 1.69 2.87 3.35 4.16 4.97z"></path><path fill="#DDD4E2" d="M134.3 335.46c-4.17-3.38-8.23-7.26-12.16-11.63-4.23-4.7-8.36-9.99-12.37-15.85-8.18 10.45-17.98 14.84-26.77 18.78-2.95 1.33-5.77 2.59-8.37 4.11-5.02 2.93-7.56 8.06-8.32 14.42-1.04 8.67 1.03 19.47 4.76 30.56 4.15 12.3 11.01 28.27 20.13 41.65 5.18 7.61 11.05 14.32 17.47 18.87l14.85-28.19c-7.79-5.43-16.74-14.35-22.62-23.73-6.14-9.8-9.19-20.43-5.16-29.29 3.54-7.75 13.47-10.95 24.21-14.4 4.93-1.59 10.08-3.25 14.35-5.3z"></path><path fill-rule="nonzero" d="M134.3 335.46c-4.17-3.38-8.23-7.26-12.16-11.63-4.23-4.7-8.36-9.99-12.37-15.85-8.18 10.45-17.98 14.84-26.77 18.78-2.95 1.33-5.77 2.59-8.37 4.11-5.02 2.93-7.56 8.06-8.32 14.42-1.04 8.67 1.03 19.47 4.76 30.56 4.15 12.3 11.01 28.27 20.13 41.65 5.18 7.61 11.05 14.32 17.47 18.87l14.85-28.19c-7.79-5.43-16.74-14.35-22.62-23.73-6.14-9.8-9.19-20.43-5.16-29.29 3.54-7.75 13.47-10.95 24.21-14.4 4.93-1.59 10.08-3.25 14.35-5.3zm-3.1-19.78c5.49 6.09 11.16 11.08 17.03 14.85.44.28.86.62 1.23 1.02a6.085 6.085 0 01-.31 8.6c-6.51 6.08-16.31 9.24-25.48 12.19-8.08 2.6-15.56 5.01-16.87 7.87-2.06 4.52.25 11.15 4.4 17.76 6.16 9.82 16.06 18.94 23.14 22.6l.05.02a6.088 6.088 0 012.55 8.23l-20.49 38.92-.01-.01a6.061 6.061 0 01-8.09 2.6c-10.54-5.27-19.64-14.87-27.21-25.96-9.82-14.41-17.17-31.51-21.6-44.66-4.28-12.68-6.61-25.28-5.34-35.85 1.21-10.11 5.56-18.42 14.28-23.52 2.88-1.69 6.15-3.15 9.57-4.68 9.03-4.06 19.34-8.68 26.37-21.71.49-.9 1.22-1.7 2.17-2.29 2.85-1.76 6.6-.87 8.36 1.98 5.19 8.39 10.6 15.77 16.25 22.04z"></path><path fill="#9A87B2" d="M91.46 417.89c3.07 4.47 6.4 8.63 9.94 12.22 2.34 2.36 4.77 4.48 7.28 6.26l14.83-28.18a72.876 72.876 0 01-6.31-4.94c-2.13-1.85-4.27-3.9-6.33-6.08l-19.41 20.72z"></path><path fill-rule="nonzero" d="M91.46 417.89c3.07 4.47 6.4 8.63 9.94 12.22 2.34 2.36 4.77 4.48 7.28 6.26l14.83-28.18a72.876 72.876 0 01-6.31-4.94c-2.13-1.85-4.27-3.9-6.33-6.08l-19.41 20.72zm1.27 20.75c-5.2-5.26-9.92-11.51-14.13-18.15-1.42-2.29-1.21-5.33.72-7.39l27-28.85a6.091 6.091 0 019.42.03c2.92 3.6 6.18 6.95 9.43 9.77 3.27 2.85 6.46 5.12 9.17 6.52l.05.02a6.088 6.088 0 012.55 8.23l-20.49 38.92-.01-.01a6.061 6.061 0 01-8.09 2.6c-5.64-2.82-10.84-6.86-15.62-11.69z"></path><path fill="#DDD4E2" d="M296.78 354.16c-4.95 1.92-10.03 3.61-15.35 5.01 2.68 6.25 5.83 11.68 9.46 16.27 4.62 5.85 10.04 10.38 16.29 13.56 2.9 1.29 4.35 4.62 3.26 7.64-1.82 5-3.56 10.1-5.2 15.34-1.6 5.11-3.07 10.27-4.38 15.49-1.06 4.23-2.01 8.46-2.83 12.68-.82 4.21-1.51 8.36-2.05 12.42-.16 2.76-2.2 5.16-5.04 5.65-4.16.74-6.95 3.01-8.62 6.33-1.7 3.4-2.46 7.87-2.45 13.04h35.11c3.03-18.51 10.32-39.17 17.61-59.84 3.67-10.4 7.35-20.81 10.41-30.77-13.68-9.96-24.31-22.97-31.68-39.23-4.76 2.33-9.57 4.47-14.54 6.41z"></path><path fill-rule="nonzero" d="M272 348.9c7.25-1.52 13.95-3.59 20.39-6.09 6.48-2.51 12.8-5.51 19.22-8.83a6.085 6.085 0 018.6 3.6c7.02 18.03 18.2 31.88 33.26 41.85 2.33 1.54 3.25 4.42 2.43 6.96-3.42 11.62-7.62 23.52-11.82 35.41-7.78 22.04-15.55 44.07-17.75 62.61a6.102 6.102 0 01-6.06 5.38l-46.18.01c-3.37 0-6.1-2.73-6.1-6.09-.8-9.46.16-18 3.47-24.59 2.77-5.52 7-9.62 12.97-11.75.49-3.25 1.03-6.41 1.63-9.51.88-4.52 1.88-8.97 2.98-13.35 1.35-5.41 2.89-10.79 4.57-16.15 1.13-3.64 2.36-7.32 3.65-11.01-5.99-3.74-11.29-8.54-15.9-14.38-5.67-7.17-10.29-15.89-13.87-26.12-1.1-3.17.57-6.64 3.75-7.74.25-.09.5-.16.76-.21zm24.78 5.26c-4.95 1.92-10.03 3.61-15.35 5.01 2.68 6.25 5.83 11.68 9.46 16.27 4.62 5.85 10.04 10.38 16.29 13.56 2.9 1.29 4.35 4.62 3.26 7.64-1.82 5-3.56 10.1-5.2 15.34-1.6 5.11-3.07 10.27-4.38 15.49-1.06 4.23-2.01 8.46-2.83 12.68-.82 4.21-1.51 8.36-2.05 12.42-.16 2.76-2.2 5.16-5.04 5.65-4.16.74-6.95 3.01-8.62 6.33-1.7 3.4-2.46 7.87-2.45 13.04h35.11c3.03-18.51 10.32-39.17 17.61-59.84 3.67-10.4 7.35-20.81 10.41-30.77-13.68-9.96-24.31-22.97-31.68-39.23-4.76 2.33-9.57 4.47-14.54 6.41z"></path><path fill="#F3C06D" d="M138.22 50.55c-3.44-.95-7.22-1.84-11.35-2.66l-1.57 25.35c10.2 4.49 19.55 11.81 27.82 21.02 9.82 10.93 18.17 24.57 24.63 39.28 4.21 4.08 9.33 6.66 14.67 7.84 4.94 1.1 10.1.99 14.91-.23 4.71-1.2 9.02-3.48 12.41-6.74a24.2 24.2 0 002.7-3.09c-6.01.27-11.18-.82-15.69-2.95-7.2-3.4-12.36-9.29-16.38-16.37-4.87-8.59-7.59-16.34-10.08-23.47-4.97-14.2-8.94-25.54-30.78-34.23l-.28-.1c-3.37-1.33-7.03-2.55-11.01-3.65z"></path><path fill-rule="nonzero" d="M123.54 34.17l2 .73 1.83.69c5.09.97 9.77 2.05 14.07 3.23l.02.01c4.6 1.26 8.66 2.61 12.25 4.02l.33.15c26.96 10.74 31.74 24.4 37.74 41.53 2.31 6.61 4.83 13.82 9.18 21.47 2.87 5.06 6.37 9.18 10.99 11.36 4.61 2.18 10.69 2.55 18.88.2 3.24-.92 6.61.96 7.53 4.2.34 1.19.3 2.39-.04 3.49-1.72 7.28-5.33 13.29-10.15 17.93-4.96 4.79-11.16 8.09-17.84 9.79-6.57 1.68-13.67 1.8-20.54.28-7.9-1.76-15.48-5.71-21.57-12.03-.53-.54-.93-1.16-1.21-1.81-6.03-13.96-13.82-26.83-22.94-37-8.14-9.05-17.3-15.92-27.15-19.39a6.11 6.11 0 01-4.03-6.34l2.3-37.22c.2-3.35 3.08-5.92 6.43-5.72.68.04 1.33.19 1.92.43zm14.68 16.38c-3.44-.95-7.22-1.84-11.35-2.66l-1.57 25.35c10.2 4.49 19.55 11.81 27.82 21.02 9.82 10.93 18.17 24.57 24.63 39.28 4.21 4.08 9.33 6.66 14.67 7.84 4.94 1.1 10.1.99 14.91-.23 4.71-1.2 9.02-3.48 12.41-6.74a24.2 24.2 0 002.7-3.09c-6.01.27-11.18-.82-15.69-2.95-7.2-3.4-12.36-9.29-16.38-16.37-4.87-8.59-7.59-16.34-10.08-23.47-4.97-14.2-8.94-25.54-30.78-34.23l-.28-.1c-3.37-1.33-7.03-2.55-11.01-3.65z"></path><path fill="#E77A88" d="M28.08 89.32c6.34 3.11 14.83 3.75 25.21 1.76 10.98-10.41 21.86-16.91 32.44-20.19 9.56-2.96 18.81-3.29 27.61-1.49l1.56-25.21c-27.44-7.66-44.45 6.32-59.57 18.74-11.71 9.63-22.48 18.47-36.05 18.58 2.28 3.44 5.23 6.05 8.8 7.81z"></path><path fill-rule="nonzero" d="M57.49 102.66c-13.86 2.97-25.58 2.07-34.75-2.43-9.61-4.72-16.18-13.15-19.27-25.01a6.08 6.08 0 014.36-7.41c1.2-.31 2.41-.24 3.5.13l.01-.01c13.23 4.54 24.12-4.41 36.27-14.39C66 38.43 86.81 21.33 123.27 34.07a6.09 6.09 0 014.07 6.11l-2.31 37.45a6.088 6.088 0 01-6.44 5.72c-.58-.03-1.14-.15-1.67-.33-8.64-3.05-17.92-3.5-27.61-.49-9.2 2.84-18.86 8.79-28.84 18.53-.85.84-1.89 1.36-2.98 1.6zM28.08 89.32c6.34 3.11 14.83 3.75 25.21 1.76 10.98-10.41 21.86-16.91 32.44-20.19 9.56-2.96 18.81-3.29 27.61-1.49l1.56-25.21c-27.44-7.66-44.45 6.32-59.57 18.74-11.71 9.63-22.48 18.47-36.05 18.58 2.28 3.44 5.23 6.05 8.8 7.81z"></path><path fill="#80B2A6" d="M199.47 153.99c-5.03-.2-10.17-1.37-15.44-3.52 4.35 10.79 9.08 20.34 14.58 28.47 7.67 11.36 16.87 19.87 28.72 25.01 4.09 1.77 7.85 2.48 11.23 2.35 4.24-.16 7.97-1.72 11.08-4.2 3.27-2.61 5.87-6.24 7.66-10.38.66-1.52 1.21-3.1 1.64-4.73-3.02 1.07-5.98 1.7-8.86 1.93-7.08.58-13.53-1.28-18.88-5.17-5.18-3.75-9.23-9.38-11.7-16.48-1.71-4.88-2.66-10.47-2.72-16.65-5.55 2.48-11.3 3.61-17.31 3.37z"></path><path fill-rule="nonzero" d="M176.08 132.05c8.68 6.25 16.59 9.5 23.87 9.78 6.95.28 13.59-2.22 20.03-7.43a6.091 6.091 0 018.56.88 6.12 6.12 0 011.28 4.84c-1.54 9.15-.97 17.02 1.16 23.15 1.64 4.68 4.19 8.31 7.37 10.61 3 2.18 6.68 3.22 10.78 2.89 4.15-.34 8.76-2.05 13.64-5.34a6.086 6.086 0 018.46 1.64 6.064 6.064 0 011.04 3.61c.19 6.79-1.15 13.7-3.82 19.86-2.57 5.94-6.37 11.22-11.23 15.1-5.04 4.02-11.18 6.55-18.24 6.82-5.09.19-10.61-.82-16.46-3.36-14.22-6.16-25.09-16.14-34.02-29.34-8.61-12.74-15.4-28.52-21.72-46.8-1.09-3.17.6-6.63 3.77-7.72 1.94-.67 3.98-.3 5.53.81zm23.39 21.94c-5.03-.2-10.17-1.37-15.44-3.52 4.35 10.79 9.08 20.34 14.58 28.47 7.67 11.36 16.87 19.87 28.72 25.01 4.09 1.77 7.85 2.48 11.23 2.35 4.24-.16 7.97-1.72 11.08-4.2 3.27-2.61 5.87-6.24 7.66-10.38.66-1.52 1.21-3.1 1.64-4.73-3.02 1.07-5.98 1.7-8.86 1.93-7.08.58-13.53-1.28-18.88-5.17-5.18-3.75-9.23-9.38-11.7-16.48-1.71-4.88-2.66-10.47-2.72-16.65-5.55 2.48-11.3 3.61-17.31 3.37z"></path><path fill="#F38F6C" d="M249.14 60.34c-2.1 2.15-4.44 4.06-7.01 5.68 2.3 1.58 4.4 3.38 6.31 5.34a44.03 44.03 0 015.99 7.76c2.06-3.42 4.44-6.56 7.13-9.26 1.52-1.54 3.14-2.94 4.86-4.18a39.224 39.224 0 01-4.88-4.18c-2.52-2.53-4.76-5.45-6.72-8.65a38.89 38.89 0 01-5.68 7.49z"></path><path fill-rule="nonzero" d="M225.22 59.52c6.19-.95 11.34-3.7 15.19-7.66 4.1-4.22 6.78-9.86 7.72-16.21.48-3.33 3.58-5.63 6.91-5.14 2.52.37 4.45 2.23 5.03 4.56 2.21 6.98 5.61 13.33 10.1 17.85 3.68 3.72 8.14 6.16 13.29 6.57 3.36.26 5.86 3.2 5.6 6.56-.24 3.1-2.78 5.48-5.82 5.61-4.99.58-9.39 3.08-13.05 6.78-4.56 4.58-8.02 10.98-10.22 17.97-1 3.22-4.41 5.01-7.62 4.01a6.099 6.099 0 01-4.21-4.88c-1.36-5.86-4.22-11.37-8.43-15.69-3.87-3.99-8.93-6.99-15.04-8.32a6.1 6.1 0 01-4.67-7.25 6.073 6.073 0 015.22-4.76zm23.92.82c-2.1 2.15-4.44 4.06-7.01 5.68 2.3 1.58 4.4 3.38 6.31 5.34a44.03 44.03 0 015.99 7.76c2.06-3.42 4.44-6.56 7.13-9.26 1.52-1.54 3.14-2.94 4.86-4.18a39.224 39.224 0 01-4.88-4.18c-2.52-2.53-4.76-5.45-6.72-8.65a38.89 38.89 0 01-5.68 7.49z"></path><path fill="#8AADB4" d="M305.22 129.53a36.642 36.642 0 01-6.38 5.24c2.07 1.46 3.98 3.1 5.72 4.89 2.1 2.16 3.94 4.53 5.51 7.07 1.93-3.14 4.13-6.01 6.61-8.51 1.38-1.38 2.83-2.65 4.37-3.79-1.54-1.13-3-2.4-4.38-3.79-2.32-2.33-4.39-5-6.21-7.92a37.742 37.742 0 01-5.24 6.81z"></path><path fill-rule="nonzero" d="M282.17 128.27c5.84-.89 10.7-3.49 14.33-7.23 3.87-3.98 6.4-9.31 7.29-15.31.48-3.33 3.58-5.63 6.91-5.15 2.52.37 4.46 2.24 5.03 4.57 2.1 6.61 5.32 12.63 9.57 16.91 3.47 3.5 7.67 5.8 12.51 6.19 3.35.26 5.86 3.19 5.6 6.55a6.093 6.093 0 01-5.82 5.61c-4.69.55-8.82 2.91-12.28 6.39-4.31 4.34-7.59 10.41-9.68 17.04-1 3.22-4.41 5.01-7.62 4.01a6.099 6.099 0 01-4.21-4.88c-1.29-5.54-3.99-10.74-7.96-14.83-3.67-3.77-8.45-6.6-14.23-7.86a6.09 6.09 0 01-4.67-7.24c.56-2.61 2.72-4.46 5.23-4.77zm23.05 1.26a36.642 36.642 0 01-6.38 5.24c2.07 1.46 3.98 3.1 5.72 4.89 2.1 2.16 3.94 4.53 5.51 7.07 1.93-3.14 4.13-6.01 6.61-8.51 1.38-1.38 2.83-2.65 4.37-3.79-1.54-1.13-3-2.4-4.38-3.79-2.32-2.33-4.39-5-6.21-7.92a37.742 37.742 0 01-5.24 6.81z"></path><path fill="#FDFEFE" d="M138.34 90.54L105.1 74.19c8.33-14.29 13.27-32.66 13.78-47.69 17.32 8.04 29.16 30.28 19.46 64.04zM84.04 170.68c4.69.73 9.68.93 14.55.48a6.074 6.074 0 016.5 4.11c2.66 7.91 4.26 15.08 5.14 21.72.88 6.66 1.02 12.74.76 18.47-.43 9.24-1.25 17.23-2.01 24.54-2.71 26.29-4.47 43.35 19.57 72.5 3.74 4.54 7.85 8.76 12.21 12.49 4.08 3.5 8.34 6.53 12.68 8.97 1.72.83 3.02 2.45 3.37 4.47l19.5 112.7c.54 3.17-1.5 6.25-4.67 6.96-5.59 1.27-9.08 3.53-11.07 7.05-1.69 2.99-2.58 7.1-2.94 12.38h37.62l1.61-121.68c-.04-.52-.01-1.04.1-1.57.64-3.31 3.84-5.46 7.15-4.82 16.96 3.38 36.39 4.5 56.34 1.62 16.89-2.44 34.17-7.76 50.7-17.02.24-.13.5-.25.76-.35 3.13-1.23 6.67.32 7.89 3.45a92.276 92.276 0 0014.95 25.21c6.36 7.61 13.83 14.07 22.08 19.16 9.23 5.71 14.11 9.02 16.66 14.54 2.55 5.55 1.91 11.42.09 22.19l-5.84 35.45a6.132 6.132 0 01-3.49 4.77c-4.99 2.29-8.47 5.28-10.26 9.02-1.34 2.79-1.85 6.17-1.46 10.19h36.62c.83-6.58 1.78-13.15 2.89-19.71 1.4-8.27 3.07-16.51 5.07-24.69 1.21-4.95 3.05-10.29 4.98-15.91 4.19-12.2 8.88-25.84 6.94-33.5-1.48-5.84-4.93-9.95-8.4-14.08-5-5.95-10.04-11.94-11.8-22.65-1.76-10.67 1.81-21.4 5.74-33.24 3.83-11.53 8.06-24.25 7.14-37.97-.39-5.88-1.44-11.7-3.19-17.25-1.64-5.22-3.91-10.19-6.84-14.72-7.77-12.04-16.27-20.74-26.28-26.08-9.94-5.31-21.63-7.43-35.89-6.38-10.75.8-21.1 2.97-31.33 5.12-19.64 4.12-38.86 8.16-60.99 3.16-15.76-3.55-27.8-10.2-37.44-19.62-9.52-9.3-16.55-21.15-22.43-35.31-1.35-3.25-2.67-6.6-3.99-9.97-3.09-7.87-6.24-15.89-10.19-23.45-5.87-11.24-13.42-23.15-22.81-32.66-8.99-9.13-19.7-16.04-32.2-17.86-8.02-1.16-16.05.11-24.1 3.63-8.38 3.67-16.83 9.78-25.34 18.11l-31.11 30.38-2.87 2.77c-8.05 7.72-13.27 12.74-12.41 25.54.32 4.73 1.87 8.81 4.23 12.11 2.56 3.59 6.12 6.3 10.11 7.97 4.7 1.95 8.64 2.37 12.31 1.7 3.95-.72 7.93-2.71 12.34-5.44 2.38-1.47 4.75-3.08 7.04-4.76a92.58 92.58 0 006.3-5.04 6.09 6.09 0 016.62-.9c3.48 1.66 7.89 2.95 12.79 3.7z"></path><path fill-rule="nonzero" d="M94.95 183.55c-4.38.11-8.7-.18-12.77-.81-4.45-.68-8.69-1.79-12.48-3.23-1.35 1.1-2.74 2.18-4.18 3.23-2.43 1.78-5.07 3.56-7.85 5.28-5.58 3.47-10.82 6.02-16.52 7.07-5.98 1.09-12.14.51-19.18-2.42-6.02-2.51-11.42-6.65-15.36-12.17C3 175.44.62 169.26.15 162.15c-1.25-18.45 5.59-25.02 16.12-35.12l2.82-2.72 31.1-30.36c9.55-9.36 19.21-16.28 28.98-20.56 10.15-4.44 20.37-6.04 30.67-4.54 15.49 2.26 28.45 10.52 39.17 21.38 10.33 10.48 18.56 23.41 24.91 35.58 4.36 8.35 7.59 16.57 10.75 24.64a546.9 546.9 0 003.9 9.72c5.29 12.74 11.48 23.27 19.66 31.27 8.06 7.87 18.22 13.45 31.63 16.47 19.53 4.41 37.5.64 55.84-3.21 10.66-2.23 21.45-4.5 32.95-5.35 16.58-1.23 30.43 1.37 42.47 7.8 2.94 1.57 5.76 3.36 8.47 5.38 10.45-9.87 22.46-17.05 35.43-20.46 13.69-3.61 28.36-3.03 43.3 2.95 18.82 7.54 31.19 20.69 37.72 36.54 7.05 17.09 7.17 37.23 1.17 56.66-1.53 4.96-3.3 10.08-5.02 15.04-9.36 26.99-16.99 49 16.68 67.74a6.082 6.082 0 012.36 8.27 5.973 5.973 0 01-2.83 2.6c-14.71 6.58-30.37 7.55-44.48 3.32-13.88-4.16-26.24-13.33-34.69-27.14-15.3-24.97-9.83-44.38-4.58-63.05 3.51-12.46 6.91-24.55 2.35-37.09-1.29-3.54-3.21-6.68-5.84-9.04-2.34-2.09-5.33-3.65-9.08-4.45l-.2-.04c-1.92-.39-4-.59-6.27-.56 1.81 3.6 3.32 7.37 4.54 11.24 2.04 6.46 3.26 13.23 3.72 20.06 1.07 16.02-3.56 29.96-7.76 42.6-3.44 10.33-6.55 19.69-5.27 27.47 1.23 7.44 5.17 12.13 9.09 16.78 4.39 5.24 8.77 10.45 10.92 18.95 2.83 11.15-2.48 26.6-7.22 40.41-1.9 5.53-3.71 10.79-4.69 14.81-1.91 7.77-3.52 15.74-4.89 23.83-1.36 8.02-2.48 16.21-3.44 24.5a6.08 6.08 0 01-6.05 5.4l-47.17.01c-3.01 0-5.51-2.18-6.01-5.05-2-8.79-1.38-16.28 1.64-22.58 2.68-5.59 7.12-10.01 13.18-13.35l5.37-32.65c1.4-8.3 1.98-12.65.86-15.09-1.14-2.46-4.84-4.88-11.99-9.29a103.37 103.37 0 01-25.03-21.69c-5.59-6.7-10.4-14.19-14.25-22.33-16.09 8.1-32.72 12.93-48.99 15.28-18.67 2.7-36.87 2.14-53.25-.44l-1.6 121c-.04 3.33-2.75 6.01-6.07 6.01v.02h-49.9c-3.37 0-6.1-2.73-6.1-6.1 0-10.31 1.25-18.27 4.74-24.44 2.96-5.24 7.26-8.92 13.4-11.28l-18.11-104.62c-4.29-2.59-8.46-5.63-12.44-9.04-4.85-4.16-9.46-8.9-13.68-14.02-27.27-33.07-25.31-52.11-22.29-81.46.75-7.2 1.56-15.07 1.96-23.82.24-5.11.11-10.51-.66-16.38-.61-4.64-1.64-9.61-3.22-15.01zm293.82 37.05c3.03 3.1 5.91 6.54 8.69 10.3l1.02 1.31c2.29-.32 4.46-.5 6.54-.54 3.39-.07 6.49.21 9.33.79l.26.04c5.92 1.26 10.77 3.83 14.65 7.31 4.24 3.8 7.24 8.62 9.18 13.96 5.91 16.22 1.98 30.15-2.06 44.52-4.55 16.16-9.28 32.98 3.24 53.42 6.8 11.11 16.69 18.48 27.78 21.8 7.74 2.33 16.08 2.69 24.4 1.01-29.59-21.86-21.19-46.12-11.1-75.22 1.61-4.64 3.26-9.42 4.88-14.66 5.18-16.8 5.16-34.03-.79-48.46-5.32-12.9-15.48-23.65-31-29.86-12.35-4.95-24.43-5.44-35.67-2.48-10.6 2.79-20.54 8.66-29.35 16.76zm-1.07 17.58l-.53-.67c-1.33-1.67-2.59-3.18-3.78-4.54-1.19-1.37-2.44-2.73-3.75-4.09-1.38-1.43-2.64-2.68-3.78-3.75l-.01-.01c-3.31-2.87-6.78-5.28-10.45-7.24-9.94-5.31-21.63-7.43-35.89-6.38-10.75.8-21.1 2.97-31.33 5.12-19.64 4.12-38.86 8.16-60.99 3.16-15.76-3.55-27.8-10.2-37.44-19.62-9.52-9.3-16.55-21.15-22.43-35.31-1.35-3.25-2.67-6.6-3.99-9.97-3.09-7.87-6.24-15.89-10.19-23.45-5.87-11.24-13.42-23.15-22.81-32.66-8.99-9.13-19.7-16.04-32.2-17.86-8.02-1.16-16.05.11-24.1 3.63-8.38 3.67-16.83 9.78-25.34 18.11l-31.11 30.38-2.87 2.77c-8.05 7.72-13.27 12.74-12.41 25.54.32 4.73 1.87 8.81 4.23 12.11 2.56 3.59 6.12 6.3 10.11 7.97 4.7 1.95 8.64 2.37 12.31 1.7 3.95-.72 7.93-2.71 12.34-5.44 2.38-1.47 4.75-3.08 7.04-4.76a92.58 92.58 0 006.3-5.04 6.09 6.09 0 016.62-.9c3.48 1.66 7.89 2.95 12.79 3.7 4.69.73 9.68.93 14.55.48a6.074 6.074 0 016.5 4.11c2.66 7.91 4.26 15.08 5.14 21.72.88 6.66 1.02 12.74.76 18.47-.43 9.24-1.25 17.23-2.01 24.54-2.71 26.29-4.47 43.35 19.57 72.5 3.74 4.54 7.85 8.76 12.21 12.49 4.08 3.5 8.34 6.53 12.68 8.97 1.72.83 3.02 2.45 3.37 4.47l19.5 112.7c.54 3.17-1.5 6.25-4.67 6.96-5.59 1.27-9.08 3.53-11.07 7.05-1.69 2.99-2.58 7.1-2.94 12.38h37.62l1.61-121.68c-.04-.52-.01-1.04.1-1.57.64-3.31 3.84-5.46 7.15-4.82 16.96 3.38 36.39 4.5 56.34 1.62 16.89-2.44 34.17-7.76 50.7-17.02.24-.13.5-.25.76-.35 3.13-1.23 6.67.32 7.89 3.45a92.276 92.276 0 0014.95 25.21c6.36 7.61 13.83 14.07 22.08 19.16 9.23 5.71 14.11 9.02 16.66 14.54 2.55 5.55 1.91 11.42.09 22.19l-5.84 35.45a6.132 6.132 0 01-3.49 4.77c-4.99 2.29-8.47 5.28-10.26 9.02-1.34 2.79-1.85 6.17-1.46 10.19h36.62c.83-6.58 1.78-13.15 2.89-19.71 1.4-8.27 3.07-16.51 5.07-24.69 1.21-4.95 3.05-10.29 4.98-15.91 4.19-12.2 8.88-25.84 6.94-33.5-1.48-5.84-4.93-9.95-8.4-14.08-5-5.95-10.04-11.94-11.8-22.65-1.76-10.67 1.81-21.4 5.74-33.24 3.83-11.53 8.06-24.25 7.14-37.97-.39-5.88-1.44-11.7-3.19-17.25-1.64-5.22-3.91-10.19-6.84-14.72-1.3-2.02-2.63-3.95-3.98-5.78z"></path><path fill-rule="nonzero" d="M71.91 119c-.83-2.65.65-5.46 3.29-6.29 2.65-.82 5.46.66 6.29 3.3.79 2.53 1.93 4.32 3.23 5.46 1.22 1.07 2.61 1.57 3.95 1.56 5.15-.05 6-4.7 6.68-8.42.4-2.24.78-4.29 1.63-6.08 1.12-2.37 3.27-4.08 5.68-4.96 1.22-.44 2.57-.68 3.9-.68v-.03c1.44 0 2.89.3 4.21.92l.38.2c1.73.93 3.12 2.4 3.87 4.48a5.01 5.01 0 01-8.86 4.51l-.09.03c-.03.01-.03-.03-.02-.08l-.03-.06c-.31.69-.55 2.04-.82 3.51-1.33 7.35-3.01 16.54-16.46 16.67-3.72.03-7.45-1.26-10.61-4.03-2.64-2.31-4.84-5.62-6.22-10.01zm27.48 64.31a6.1 6.1 0 01-7.44-4.34 6.1 6.1 0 014.34-7.44c8.23-2.17 15.14-5.84 20.49-10.97 5.21-4.99 9.02-11.44 11.22-19.31a6.09 6.09 0 017.51-4.22 6.09 6.09 0 014.22 7.51c-2.81 10.02-7.74 18.3-14.51 24.8-6.88 6.59-15.59 11.26-25.83 13.97zm-73.16-31.65c2.55-1.52 5.1-3.45 8.23-2.06 1.72.76 2.57 2.49 2.86 4.26.77 4.64-2.35 5.91-5.54 8.1-2.12 1.46-3.67 2.84-6.48 2.42-3.38-.5-5.44-3.91-4.53-7.26.82-3.05 3-4 5.46-5.46zm79.82-38.86l-.03.06.03.06.01-.1-.01-.02zm.49.1h-.01l.03.01-.02-.01z"></path><path fill="#D6885F" d="M81.29 72.09l-53.9-48.82 34.2 59.63c3.45-2.63 7.09-4.95 10.93-6.94h.02c2.81-1.46 5.72-2.75 8.75-3.87z"></path><path fill-rule="nonzero" d="M25.82 5.46l71.65 64.9c2.49 2.25 2.68 6.1.43 8.59-.88.97-2 1.59-3.19 1.85-5.93 1.32-11.45 3.31-16.57 5.97a64.456 64.456 0 00-14.07 9.94 6.067 6.067 0 01-8.6-.31c-.33-.34-.6-.72-.83-1.12C39.46 68.82 23.87 42.36 9.02 15.75c-.52-.88-1.1-1.89-1.56-3.09C5.67 8.03 5.79 3.39 12.62.76c6.03-2.32 9.55 1.13 12.5 4.01l.7.69zm55.47 66.63l-53.9-48.82 34.2 59.63c3.45-2.63 7.09-4.95 10.93-6.94h.02c2.81-1.46 5.72-2.75 8.75-3.87z"></path><path fill-rule="nonzero" d="M44.04 59.38c-1.89 2.78-5.68 3.49-8.46 1.6-2.77-1.9-3.49-5.69-1.59-8.46l12.6-18.46a6.093 6.093 0 018.46-1.6c2.78 1.9 3.5 5.68 1.6 8.46L44.04 59.38zM59.46 78.87c-1.89 2.78-5.68 3.49-8.46 1.6A6.103 6.103 0 0149.4 72l12.61-18.46a6.089 6.089 0 018.46-1.59c2.78 1.89 3.49 5.68 1.6 8.46L59.46 78.87zM320.38 338.57c1.58 2.96.46 6.65-2.5 8.23s-6.64.45-8.22-2.51c-3.04-5.68-5.41-11.81-6.91-18.55-1.49-6.7-2.13-13.94-1.7-21.86a6.085 6.085 0 016.39-5.77c3.36.17 5.94 3.03 5.77 6.39-.37 6.83.16 13 1.41 18.62 1.25 5.59 3.23 10.7 5.76 15.45zm-163.61-.41c.5 3.33-1.8 6.44-5.13 6.94a6.09 6.09 0 01-6.93-5.12l-4.6-30.43c-.51-3.33 1.79-6.43 5.12-6.94 3.33-.49 6.43 1.8 6.94 5.13l4.6 30.42zm52.21 21.32a6.075 6.075 0 11-12.15 0l-.1-33.33c0-3.35 2.72-6.07 6.08-6.07 3.35 0 6.08 2.72 6.08 6.07l.09 33.33zM135.21 95.77l-32.78-16.12c-3.01-1.48-4.26-5.12-2.78-8.13l.2-.38c3.81-6.56 6.88-14.05 9.07-21.64 2.3-7.96 3.64-16.01 3.89-23.19.1-3.36 2.91-5.99 6.27-5.89.84.03 1.63.22 2.35.55 10.78 5 19.72 14.67 23.92 28.51 3.5 11.51 3.7 25.87-1.15 42.72a6.096 6.096 0 01-8.99 3.57z"></path><path fill="#fff" fill-rule="nonzero" d="M113.44 71.52l20.79 10.22c2.3-11.33 1.86-20.94-.51-28.73-2.01-6.64-5.44-11.95-9.71-15.86-.75 5.16-1.89 10.48-3.41 15.74-1.85 6.4-4.26 12.74-7.16 18.63z"></path><path fill="#9A87B2" d="M316.72 468.75a208.3 208.3 0 011.74-7.2l-33.2-.82c-1.83 1.56-3.14 3.77-4.01 6.48-.95 2.97-1.38 6.48-1.38 10.38h35.12c.47-2.85 1.05-5.8 1.73-8.84z"></path><path fill-rule="nonzero" d="M332.22 457.39c-1.4 4.8-2.63 9.48-3.63 13.99-.98 4.38-1.75 8.73-2.26 13.03a6.102 6.102 0 01-6.06 5.38l-46.18.01c-3.37 0-6.1-2.73-6.1-6.09-.64-7.47-.17-14.37 1.68-20.17 1.94-6.09 5.36-10.98 10.54-14.13a6.05 6.05 0 013.61-.88l42.71 1.06a6.079 6.079 0 015.69 7.8zm-15.5 11.36a208.3 208.3 0 011.74-7.2l-33.2-.82c-1.83 1.56-3.14 3.77-4.01 6.48-.95 2.97-1.38 6.48-1.38 10.38h35.12c.47-2.85 1.05-5.8 1.73-8.84z"></path><path fill="#9A87B2" d="M390.22 469.71c.31-2.15.62-4.27.95-6.36l-33.35-.83c-2.21 1.98-3.77 4.3-4.61 6.97-.74 2.37-.98 5.09-.68 8.19h36.63c.33-2.61.68-5.27 1.06-7.97zm-194.97 7.81l.25-19.01-23.31-.57-.55.15c-5.59 1.27-9.08 3.53-11.07 7.05-1.69 2.99-2.58 7.1-2.94 12.38h37.62z"></path><path fill-rule="nonzero" d="M404.31 458.47c-.76 4.4-1.43 8.7-2.03 12.91-.59 4.19-1.14 8.56-1.67 13.09a6.08 6.08 0 01-6.05 5.4l-47.17.01c-3.01 0-5.51-2.18-6.01-5.05-1.63-7.16-1.52-13.46.2-18.96 1.83-5.84 5.4-10.61 10.56-14.39a6.083 6.083 0 014.04-1.16l42.27 1.05c3.36.07 6.01 2.86 5.94 6.22-.01.3-.04.59-.09.88h.01zm-14.09 11.24c.31-2.15.62-4.27.95-6.36l-33.35-.83c-2.21 1.98-3.77 4.3-4.61 6.97-.74 2.37-.98 5.09-.68 8.19h36.63c.33-2.61.68-5.27 1.06-7.97zm-182.49-16.94l-.41 30.92c-.04 3.33-2.75 6.01-6.07 6.01v.02h-49.9c-3.37 0-6.1-2.73-6.1-6.1 0-10.31 1.25-18.27 4.74-24.44 3.49-6.17 8.84-10.18 16.84-12.42.7-.47 1.51-.81 2.39-.96.54-.09 1.07-.1 1.59-.06l30.99.77a6.07 6.07 0 015.93 6.22v.04zm-12.48 24.75l.25-19.01-23.31-.57-.55.15c-5.59 1.27-9.08 3.53-11.07 7.05-1.69 2.99-2.58 7.1-2.94 12.38h37.62z"></path></svg></g></g><defs><clipPath id="SvgjsClipPath1087"><rect width="1000" height="1000" x="0" y="0" rx="350" ry="350"></rect></clipPath></defs></svg>